<svg width="1491" height="857" viewBox="0 0 1491 857" fill="none" xmlns="http://www.w3.org/2000/svg">
<g clip-path="url(#clip0)">
<path d="M783.168 659.115C782.636 659.115 782.106 659.075 781.581 658.995C780.218 658.793 778.91 658.322 777.731 657.611C776.551 656.899 775.525 655.961 774.71 654.85L760.584 635.684C759.767 634.576 759.176 633.317 758.845 631.98C758.514 630.644 758.45 629.255 758.655 627.893C758.861 626.531 759.332 625.223 760.043 624.044C760.754 622.865 761.69 621.837 762.798 621.02L883.569 531.894C884.676 531.076 885.934 530.485 887.27 530.154C888.606 529.823 889.995 529.758 891.356 529.964C892.717 530.17 894.024 530.642 895.203 531.353C896.381 532.064 897.409 533.001 898.225 534.109L912.35 553.273C914 555.512 914.694 558.314 914.279 561.065C913.864 563.815 912.374 566.288 910.138 567.939L789.367 657.065C787.574 658.396 785.4 659.115 783.168 659.115V659.115Z" fill="#73C55E"/>
<path d="M868.938 587.356L850.454 562.278C848.931 560.212 848.291 557.625 848.674 555.086C849.057 552.548 850.433 550.266 852.498 548.742L923.221 486.738C925.286 485.214 927.871 484.573 930.408 484.957C932.945 485.34 935.226 486.717 936.749 488.783L970.552 529.188C972.075 531.254 972.715 533.841 972.332 536.38C971.948 538.919 970.573 541.201 968.508 542.725L882.467 589.401C880.402 590.925 877.816 591.566 875.279 591.182C872.742 590.799 870.461 589.422 868.938 587.356Z" fill="#2F2E41"/>
<path d="M982.578 855.519H958.78C956.001 855.515 953.337 854.41 951.373 852.443C949.408 850.477 948.303 847.812 948.299 845.031V646.557C948.303 643.777 949.408 641.111 951.373 639.145C953.337 637.179 956.001 636.073 958.78 636.07H982.578C985.357 636.073 988.02 637.179 989.985 639.145C991.95 641.111 993.055 643.777 993.059 646.557V845.031C993.055 847.812 991.95 850.477 989.985 852.443C988.02 854.41 985.357 855.515 982.578 855.519V855.519Z" fill="#73C55E"/>
<path d="M1029.65 855.519H1005.85C1003.07 855.515 1000.41 854.41 998.442 852.443C996.477 850.477 995.372 847.812 995.369 845.031V646.557C995.372 643.777 996.477 641.111 998.442 639.145C1000.41 637.179 1003.07 636.073 1005.85 636.07H1029.65C1032.43 636.073 1035.09 637.179 1037.06 639.145C1039.02 641.111 1040.13 643.777 1040.13 646.557V845.031C1040.13 847.812 1039.02 850.477 1037.06 852.443C1035.09 854.41 1032.43 855.515 1029.65 855.519V855.519Z" fill="#73C55E"/>
<path d="M1252.79 852.452H730.311V856.067H1252.79V852.452Z" fill="#3F3D56"/>
<path d="M983.938 402.164C1031.6 402.164 1070.23 363.504 1070.23 315.815C1070.23 268.126 1031.6 229.466 983.938 229.466C936.277 229.466 897.641 268.126 897.641 315.815C897.641 363.504 936.277 402.164 983.938 402.164Z" fill="#73C55E"/>
<path d="M1117.54 753.75L1067.56 531.67V479.199C1067.56 475.776 1066.2 472.493 1063.78 470.072C1061.36 467.651 1058.08 466.291 1054.66 466.291H1006.79V432.55C1006.79 430.855 1006.45 429.176 1005.81 427.61C1005.16 426.044 1004.21 424.621 1003.01 423.423C1001.81 422.224 1000.39 421.274 998.825 420.625C997.26 419.976 995.583 419.642 993.889 419.642H968.089C966.395 419.642 964.718 419.976 963.153 420.625C961.588 421.274 960.166 422.224 958.968 423.423C957.77 424.621 956.82 426.044 956.172 427.61C955.524 429.176 955.19 430.855 955.19 432.55V466.291H907.316C903.895 466.291 900.614 467.651 898.195 470.072C895.775 472.493 894.416 475.776 894.416 479.199V755.234C894.417 756.889 894.737 758.529 895.358 760.062C895.942 762.819 897.429 765.302 899.584 767.117C901.739 768.931 904.439 769.973 907.253 770.076L1109.49 776.823C1121.58 777.14 1127.06 761.411 1117.54 753.75Z" fill="#2F2E41"/>
<path d="M984.766 346.492C979.436 346.343 972.802 346.157 967.693 342.421C966.171 341.264 964.921 339.787 964.03 338.096C963.138 336.404 962.627 334.537 962.533 332.627C962.44 331.269 962.662 329.907 963.183 328.649C963.703 327.391 964.507 326.27 965.532 325.375C968.204 323.118 972.105 322.591 976.3 323.824L971.947 291.997L975.144 291.559L980.258 328.975L977.591 327.751C974.497 326.33 970.251 325.608 967.614 327.839C966.966 328.422 966.461 329.147 966.139 329.958C965.816 330.769 965.685 331.643 965.756 332.512C965.834 333.934 966.217 335.322 966.88 336.582C967.542 337.843 968.468 338.945 969.595 339.815C973.572 342.722 978.86 343.099 984.858 343.266L984.766 346.492Z" fill="#2F2E41"/>
<path d="M956.147 294.743H938.779V297.97H956.147V294.743Z" fill="#2F2E41"/>
<path d="M1010.97 294.743H993.602V297.97H1010.97V294.743Z" fill="#2F2E41"/>
<path d="M908.366 260.002C893.038 250.706 885.818 233.073 885.805 215.632C885.797 206.337 887.814 197.151 891.716 188.715C895.618 180.279 901.311 172.795 908.399 166.786C924.187 153.122 945.213 146.436 965.754 144.737C990.607 142.681 1015.3 148.087 1039.03 154.985C1064.45 162.373 1089.35 171.667 1115.36 176.839C1140.61 181.857 1165.92 182.352 1190.77 175.095C1213.71 168.397 1237 156.561 1261.5 158.612C1282.67 160.384 1298.74 174.475 1309.55 191.885C1331.01 226.451 1332.71 272.844 1363.58 301.628C1376.92 314.073 1394.31 319.71 1411.69 323.924C1428.35 327.965 1446.12 330.554 1461.41 338.731C1477.81 347.499 1487.74 363.98 1485.17 382.865C1482.26 404.313 1467 422.773 1450.21 435.373C1432.53 448.47 1412.16 457.457 1390.57 461.678C1368.98 465.9 1346.72 465.251 1325.42 459.778C1280.86 447.95 1244.65 413.398 1197.18 411.233C1170.7 410.025 1144.63 417.244 1118.15 416.047C1099.8 415.217 1080.05 408.429 1067.27 394.774C1061.13 388.384 1057.3 380.131 1056.37 371.319C1056.08 368.244 1051.24 368.214 1051.53 371.319C1053.35 390.61 1067.54 404.86 1084.48 412.694C1093.39 416.787 1102.91 419.409 1112.66 420.458C1125.62 421.89 1138.83 420.535 1151.73 419.12C1165.36 417.625 1179.02 415.782 1192.76 415.947C1205.31 416.147 1217.74 418.359 1229.59 422.5C1252.33 430.306 1272.82 443.256 1294.55 453.343C1315.58 463.105 1337.6 469.157 1360.89 469.307C1383.34 469.419 1405.55 464.654 1425.98 455.34C1446.1 446.168 1465.01 432.478 1477.54 414.023C1489.28 396.721 1495.45 374.022 1484.88 354.651C1476.59 339.469 1460.79 331.786 1444.86 327.056C1427.2 321.812 1408.75 319.418 1391.46 312.888C1382.43 309.639 1374.11 304.651 1367 298.205C1359.36 290.79 1353.07 282.104 1348.4 272.534C1338.51 253.217 1333.45 232 1325.11 212.046C1317.39 193.563 1306.83 174.934 1289.81 163.543C1280.67 157.49 1270.04 154.058 1259.08 153.618C1246.96 153.07 1234.92 155.854 1223.39 159.363C1211.2 163.076 1199.31 167.714 1187.02 171.131C1174.08 174.736 1160.67 176.339 1147.25 175.884C1119.64 174.984 1092.97 166.778 1066.83 158.504C1021.04 144.01 970.123 128.494 924.09 150.836C906.154 159.541 890.961 174.147 884.556 193.326C878.888 210.296 879.671 230.091 888.409 245.901C892.551 253.421 898.59 259.724 905.925 264.181C908.594 265.8 911.028 261.616 908.366 260.002L908.366 260.002Z" fill="#2F2E41"/>
<path d="M1041.78 691.503H1017.98C1015.2 691.5 1012.54 690.394 1010.57 688.428C1008.61 686.462 1007.5 683.796 1007.5 681.016V543.464C1007.5 540.683 1008.61 538.018 1010.57 536.052C1012.54 534.086 1015.2 532.98 1017.98 532.977H1041.78C1044.56 532.98 1047.22 534.086 1049.19 536.052C1051.15 538.018 1052.26 540.683 1052.26 543.464V681.016C1052.26 683.796 1051.15 686.462 1049.19 688.428C1047.22 690.394 1044.56 691.5 1041.78 691.503V691.503Z" fill="#73C55E"/>
<path d="M949.915 238.637C950.445 242.429 952.023 245.997 954.472 248.939C956.921 251.881 960.142 254.081 963.774 255.288C967.405 256.496 971.301 256.665 975.023 255.776C978.745 254.886 982.144 252.974 984.838 250.255L980.795 249.187C983.05 254.959 986.83 260.011 991.731 263.801C996.633 267.591 1002.47 269.978 1008.62 270.706C1014.77 271.435 1021.01 270.477 1026.66 267.936C1032.31 265.396 1037.16 261.367 1040.7 256.28C1042.52 253.748 1038.33 251.329 1036.52 253.837C1033.47 258.111 1029.33 261.489 1024.53 263.618C1019.74 265.747 1014.45 266.551 1009.24 265.944C1004.03 265.338 999.07 263.345 994.888 260.171C990.706 256.997 987.45 252.76 985.46 247.9C985.339 247.498 985.116 247.135 984.815 246.843C984.513 246.552 984.142 246.343 983.737 246.236C983.331 246.129 982.905 246.127 982.499 246.232C982.093 246.336 981.721 246.543 981.417 246.832C979.319 248.954 976.661 250.435 973.753 251.103C970.845 251.771 967.807 251.598 964.994 250.604C962.181 249.61 959.708 247.836 957.864 245.49C956.02 243.143 954.881 240.32 954.579 237.35C954.147 234.279 949.486 235.585 949.915 238.637V238.637Z" fill="#2F2E41"/>
<path d="M797.435 582.272L796.931 582.614L787.566 568.792C786.855 567.742 785.943 566.842 784.884 566.144C783.825 565.446 782.638 564.963 781.393 564.724C780.147 564.485 778.866 564.493 777.624 564.749C776.382 565.005 775.202 565.503 774.152 566.216V566.216L744.886 586.068C743.837 586.78 742.937 587.692 742.24 588.752C741.542 589.812 741.06 590.999 740.821 592.245C740.582 593.492 740.59 594.773 740.846 596.016C741.102 597.259 741.6 598.44 742.312 599.49L793.686 675.318C794.398 676.368 795.309 677.268 796.369 677.966C797.428 678.664 798.614 679.147 799.86 679.386C801.106 679.625 802.386 679.617 803.628 679.361C804.871 679.105 806.051 678.606 807.1 677.894V677.894L836.366 658.042C837.416 657.33 838.315 656.418 839.013 655.358C839.71 654.298 840.192 653.111 840.432 651.864C840.671 650.618 840.662 649.337 840.406 648.094C840.151 646.851 839.653 645.67 838.941 644.62V644.62L803.597 592.453L804.101 592.11L797.435 582.272Z" fill="#3F3D56"/>
<path d="M776.366 569.805L772.668 572.313C773.121 572.615 773.492 573.023 773.75 573.503C774.008 573.982 774.144 574.517 774.146 575.062C774.148 575.606 774.017 576.142 773.763 576.624C773.509 577.105 773.141 577.517 772.69 577.822L756.463 588.83C756.013 589.136 755.494 589.326 754.953 589.383C754.412 589.441 753.866 589.365 753.361 589.161C752.857 588.958 752.41 588.633 752.06 588.216C751.711 587.799 751.469 587.302 751.357 586.77L747.903 589.113C747.144 589.628 746.494 590.287 745.989 591.053C745.485 591.819 745.137 592.677 744.964 593.578C744.791 594.479 744.797 595.406 744.982 596.304C745.167 597.203 745.527 598.056 746.041 598.815V598.815L795.694 672.101C796.208 672.86 796.867 673.511 797.633 674.015C798.399 674.52 799.256 674.869 800.156 675.042C801.057 675.215 801.983 675.208 802.881 675.023C803.779 674.838 804.631 674.478 805.39 673.963L833.852 654.656C835.385 653.617 836.442 652.01 836.791 650.191C837.14 648.371 836.753 646.487 835.714 644.954V644.954L786.061 571.668C785.547 570.908 784.888 570.258 784.122 569.753C783.356 569.249 782.499 568.9 781.598 568.727C780.698 568.554 779.772 568.56 778.874 568.745C777.976 568.93 777.123 569.291 776.365 569.805V569.805L776.366 569.805Z" fill="white"/>
</g>
<defs>
<clipPath id="clip0">
<rect width="1490.31" height="856.067" fill="white"/>
</clipPath>
</defs>
</svg>
